Coordinates
version=1
nRows=4
nColumns=107
inDegrees=yes

Units are S.I. units (second, meters, Newtons, ...)
If the header above contains a line with 'inDegrees', this indicates whether rotational values are in degrees (yes) or radians (no).

endheader
time	sternoclavicular_r2	sternoclavicular_r3	unrotscap_r3	unrotscap_r2	acromioclavicular_r2	acromioclavicular_r3	acromioclavicular_r1	unrothum_r1	unrothum_r3	unrothum_r2	elv_angle	shoulder_elv	shoulder1_r2	shoulder_rot	elbow_flexion	pro_sup	deviation	flexion	proximal_distal_r1	proximal_distal_r3	cmc_flexion	cmc_abduction	mp_flexion	ip_flexion	mcp2_flexion	mcp2_abduction	pm2_flexion	md2_flexion	mcp3_flexion	mcp3_abduction	pm3_flexion	md3_flexion	mcp4_flexion	mcp4_abduction	pm4_flexion	md4_flexion	mcp5_flexion	mcp5_abduction	pm5_flexion	md5_flexion	bicpt_tx	bicpt_ty	bicpt_tz	bicpt2_tx	bicpt2_ty	bicpt2_tz	ptpt_tx	ptpt_ty	ptpt_tz	FCUpt_tx	FCUpt_ty	FCUpt_tz	EDCpt_tx	EDCpt_ty	EDCpt_tz	APLpt_tx	APLpt_ty	APLpt_tz	FPLpt_tx	FPLpt_ty	FPLpt_tz	FPLpt2_tx	FPLpt2_ty	FPLpt2_tz	PEC1pt2_tx	PEC1pt2_ty	PEC1pt2_tz	PEC1pt3_tx	PEC1pt3_ty	PEC1pt3_tz	PEC2pt2_tx	PEC2pt2_ty	PEC2pt2_tz	PEC2pt3_tx	PEC2pt3_ty	PEC2pt3_tz	PEC3pt2_tx	PEC3pt2_ty	PEC3pt2_tz	PEC3pt3_tx	PEC3pt3_ty	PEC3pt3_tz	DELT2pt2a_tx	DELT2pt2a_ty	DELT2pt2a_tz	DELT2pt2_tx	DELT2pt2_ty	DELT2pt2_tz	LAT1pt2_tx	LAT1pt2_ty	LAT1pt2_tz	LAT1pt3_tx	LAT1pt3_ty	LAT1pt3_tz	LAT2pt2_tx	LAT2pt2_ty	LAT2pt2_tz	LAT2pt3_tx	LAT2pt3_ty	LAT2pt3_tz	LAT3pt2_tx	LAT3pt2_ty	LAT3pt2_tz	LAT3pt3_tx	LAT3pt3_ty	LAT3pt3_tz
      1.23333333	     -0.32008078	      0.13557111	     -0.13557111	      0.32008078	     -0.06480985	      0.52377038	      0.23543118	     -0.23543118	     -0.52377038	      0.06480985	     99.20551662	     75.78196892	     -1.73146290	    -26.37564857	     31.37916187	     60.43369298	      0.28002078	     -0.05462972	      0.31584723	     -0.02731486	     25.02254962	    -11.75000402	    -19.35684933	     -0.08747660	      5.33406826	      8.61865025	     32.66018309	    -14.41278044	     14.63257427	      2.63734864	     11.04833341	     13.94941216	     13.34661649	     -4.13071600	      9.91423600	     24.98178746	     11.63283828	    -13.78661668	     15.70091138	      5.36668632	      0.00093793	     -0.03119653	     -0.00487931	      0.01613497	     -0.01872430	     -0.00499599	      0.00308463	     -0.06778738	     -0.00491826	      0.00990191	     -0.18301071	     -0.00037426	     -0.00725203	      0.00227590	     -0.00011342	      0.00005339	      0.00002136	      0.00010679	      0.00006835	      0.00020504	      0.00011533	      0.00000020	     -0.00027772	     -0.00033326	      0.00248397	      0.00871493	      0.00606256	     -0.00812552	      0.01961913	     -0.01860870	      0.00248397	      0.00871493	      0.00606256	      0.00054731	      0.01818769	     -0.00955696	      0.00393334	      0.00484626	      0.01593184	      0.00000000	      0.00767981	      0.00000000	     -0.00711509	     -0.03288098	     -0.00633179	      0.01718356	     -0.00063535	     -0.00581673	     -0.00088412	      0.01481960	     -0.00606256	      0.00244187	      0.02138737	     -0.01768247	     -0.00593626	      0.01284084	     -0.00543105	     -0.01237773	      0.02711313	     -0.03035491	     -0.02323982	      0.01435649	     -0.00728350	     -0.01540901	      0.03132324	     -0.03793312
      1.26666667	     -0.32333976	      0.13695146	     -0.13695146	      0.32333976	     -0.06546972	      0.52910328	      0.23782828	     -0.23782828	     -0.52910328	      0.06546972	     98.58262937	     76.55356142	     -1.72059147	    -22.75555655	     30.95356490	     56.77673505	      0.30780562	     -0.06273212	      0.34018671	     -0.03136606	     25.32326858	    -11.36479124	    -21.27547576	      0.39933677	      6.25292977	      8.95401398	     33.27054619	    -13.24379825	     15.49857592	      2.78238329	     11.94711757	     13.93059987	     13.84229889	     -4.26867382	     12.17105990	     23.94913600	     12.53351356	    -13.81480312	     17.07476762	      5.30619998	      0.00092385	     -0.03114775	     -0.00487145	      0.01628383	     -0.01860869	     -0.00548179	      0.00335484	     -0.06761266	     -0.00462367	      0.00951273	     -0.18310611	     -0.00039954	     -0.00681319	      0.00210613	     -0.00005028	      0.00006089	      0.00002436	      0.00012178	      0.00007794	      0.00023381	      0.00013152	     -0.00000043	     -0.00027685	     -0.00033222	      0.00250926	      0.00880367	      0.00612429	     -0.00820825	      0.01981888	     -0.01879817	      0.00250926	      0.00880367	      0.00612429	      0.00055289	      0.01837287	     -0.00965426	      0.00396255	      0.00489561	      0.01600324	      0.00000000	      0.00783811	      0.00000000	     -0.00718753	     -0.03321577	     -0.00646320	      0.01531569	     -0.00051804	     -0.00431333	     -0.00089313	      0.01497049	     -0.00612429	      0.00246673	      0.02160513	     -0.01786251	     -0.00599670	      0.01297159	     -0.00548634	     -0.01250376	      0.02738919	     -0.03066398	     -0.02347645	      0.01450266	     -0.00735765	     -0.01556590	      0.03164217	     -0.03831934
      1.30000000	     -0.32351209	      0.13702445	     -0.13702445	      0.32351209	     -0.06550462	      0.52938528	      0.23795504	     -0.23795504	     -0.52938528	      0.06550462	     98.58929042	     76.59436330	     -1.72070772	    -22.76440862	     30.97184366	     56.77548973	      0.30786382	     -0.06282666	      0.34023634	     -0.03141333	     25.32233258	    -11.36588690	    -21.27589549	      0.39946702	      6.24959384	      8.95377686	     33.27025546	    -13.24390408	     15.49561609	      2.78260162	     11.94706394	     13.93065390	     13.84097295	     -4.26813533	     12.17119985	     23.94914374	     12.53339069	    -13.81439059	     17.07507166	      5.30628757	      0.00092445	     -0.03114985	     -0.00487179	      0.01628384	     -0.01861365	     -0.00548193	      0.00335493	     -0.06761260	     -0.00462357	      0.00951260	     -0.18310614	     -0.00039954	     -0.00681304	      0.00210608	     -0.00005027	      0.00006097	      0.00002439	      0.00012195	      0.00007805	      0.00023414	      0.00013171	     -0.00000042	     -0.00027683	     -0.00033219	      0.00251060	      0.00880836	      0.00612755	     -0.00821262	      0.01982945	     -0.01880819	      0.00251060	      0.00880836	      0.00612755	      0.00055318	      0.01838266	     -0.00965941	      0.00396409	      0.00489822	      0.01600698	      0.00000000	      0.00784652	      0.00000000	     -0.00719137	     -0.03323347	     -0.00647019	      0.01532036	     -0.00051832	     -0.00431691	     -0.00089360	      0.01497847	     -0.00612755	      0.00246804	      0.02161665	     -0.01787203	     -0.00599990	      0.01297850	     -0.00548927	     -0.01251042	      0.02740378	     -0.03068032	     -0.02348896	      0.01451039	     -0.00736158	     -0.01557420	      0.03165903	     -0.03833977
      1.33333333	     -0.32135337	      0.13611012	     -0.13611012	      0.32135337	     -0.06506752	      0.52585281	      0.23636722	     -0.23636722	     -0.52585281	      0.06506752	     99.04238211	     76.08326656	     -1.72861567	    -24.93484896	     30.88213925	     57.65392657	      0.28078191	     -0.13792688	      0.31653148	     -0.06896344	     25.04509400	    -11.44539824	    -21.51021416	     -0.10404680	      6.57956993	      9.03453601	     33.48813348	    -12.35405673	     16.11195906	      2.73637392	     11.73462848	     14.38952303	     13.87523223	     -4.25312168	     13.22802380	     24.03377322	     12.59493069	    -13.81113135	     17.88504625	      5.28751650	      0.00092149	     -0.03113957	     -0.00487013	      0.01625089	     -0.01858928	     -0.00536696	      0.00329003	     -0.06765457	     -0.00469433	      0.00960571	     -0.18308357	     -0.00039439	     -0.00691846	      0.00214648	     -0.00006477	      0.00012519	      0.00005007	      0.00025037	      0.00016024	      0.00048072	      0.00027040	      0.00000015	     -0.00027765	     -0.00033318	      0.00249384	      0.00874958	      0.00608667	     -0.00815782	      0.01969713	     -0.01868268	      0.00249384	      0.00874958	      0.00608667	      0.00054949	      0.01826000	     -0.00959495	      0.00394477	      0.00486553	      0.01595989	      0.00000000	      0.00774143	      0.00000000	     -0.00714338	     -0.03301171	     -0.00638295	      0.01646107	     -0.00058812	     -0.00519633	     -0.00088764	      0.01487852	     -0.00608667	      0.00245157	      0.02147241	     -0.01775278	     -0.00595986	      0.01289190	     -0.00545264	     -0.01242694	      0.02722093	     -0.03047560	     -0.02333222	      0.01441356	     -0.00731245	     -0.01547028	      0.03144778	     -0.03808393
